HIERARCHY
ROOT Hips
{
	OFFSET 0.000000 83.214638 0.000000
	CHANNELS 6 Xposition Yposition Zposition Xrotation Yrotation Zrotation
	JOINT Pelvis
	{
		OFFSET 0.000000 0.000000 0.000000
		CHANNELS 3 Xrotation Yrotation Zrotation
		JOINT LeftUpLeg
		{
			OFFSET 8.479700 -4.795502 -0.379100
			CHANNELS 3 Xrotation Yrotation Zrotation
			JOINT LeftLeg
			{
				OFFSET 0.024144 -32.555107 0.112900
				CHANNELS 3 Xrotation Yrotation Zrotation
				JOINT LeftFoot
				{
					OFFSET -0.024144 -32.638630 -3.012600
					CHANNELS 3 Xrotation Yrotation Zrotation
					JOINT LeftToeBase
					{
						OFFSET 0.970200 -13.225400 11.864200
						CHANNELS 3 Xrotation Yrotation Zrotation
						End Site
						{
							OFFSET 0.000000 12.319262 0.000000
						}
					}
					JOINT LFootTongue
					{
						OFFSET 1.142400 -1.059800 6.665200
						CHANNELS 3 Xrotation Yrotation Zrotation
						End Site
						{
							OFFSET 0.000000 12.319262 0.000000
						}
					}
				}
				JOINT LeftPantLeg
				{
					OFFSET 0.918482 -16.533964 -2.284700
					CHANNELS 3 Xrotation Yrotation Zrotation
					End Site
					{
						OFFSET 0.350399 24.744368 0.000000
					}
				}
			}
		}
		JOINT RightUpLeg
		{
			OFFSET -8.479700 -4.795502 -0.379100
			CHANNELS 3 Xrotation Yrotation Zrotation
			JOINT RightLeg
			{
				OFFSET -0.023144 -32.555092 0.112900
				CHANNELS 3 Xrotation Yrotation Zrotation
				JOINT RightFoot
				{
					OFFSET 0.023144 -32.638641 -3.012700
					CHANNELS 3 Xrotation Yrotation Zrotation
					JOINT RightToeBase
					{
						OFFSET -0.970200 -13.225400 11.864200
						CHANNELS 3 Xrotation Yrotation Zrotation
						End Site
						{
							OFFSET 0.000000 12.319244 0.000000
						}
					}
					JOINT RFootTongue
					{
						OFFSET -1.142200 -1.059800 6.665200
						CHANNELS 3 Xrotation Yrotation Zrotation
						End Site
						{
							OFFSET 0.000000 12.319243 0.000000
						}
					}
				}
				JOINT RightPantLeg
				{
					OFFSET -0.919482 -16.533978 -2.284800
					CHANNELS 3 Xrotation Yrotation Zrotation
					End Site
					{
						OFFSET -0.350400 24.744419 0.000000
					}
				}
			}
		}
	}
	JOINT Spine
	{
		OFFSET 0.000000 7.722000 1.166200
		CHANNELS 3 Xrotation Yrotation Zrotation
		JOINT Spine1
		{
			OFFSET 0.000000 12.024101 0.248800
			CHANNELS 3 Xrotation Yrotation Zrotation
			JOINT Spine2
			{
				OFFSET 0.000000 11.502998 -0.491200
				CHANNELS 3 Xrotation Yrotation Zrotation
				JOINT Neck
				{
					OFFSET 0.000000 18.430702 -3.123100
					CHANNELS 3 Xrotation Yrotation Zrotation
					JOINT Head
					{
						OFFSET 0.000000 9.051102 1.034000
						CHANNELS 3 Xrotation Yrotation Zrotation
						JOINT HairB
						{
							OFFSET 0.208400 24.786102 24.822300
							CHANNELS 3 Xrotation Yrotation Zrotation
							End Site
							{
								OFFSET 0.000000 32.263779 0.000000
							}
						}
						JOINT HairA
						{
							OFFSET -7.081100 24.428299 23.196600
							CHANNELS 3 Xrotation Yrotation Zrotation
							End Site
							{
								OFFSET 0.000000 32.263779 0.000000
							}
						}
						JOINT Hat
						{
							OFFSET 16.728800 15.048294 -15.439601
							CHANNELS 3 Xrotation Yrotation Zrotation
							End Site
							{
								OFFSET 0.000000 32.263779 0.000000
							}
						}
					}
				}
				JOINT LeftShoulder
				{
					OFFSET 6.197800 13.665199 -4.064700
					CHANNELS 3 Xrotation Yrotation Zrotation
					JOINT LeftArm
					{
						OFFSET 7.778100 -0.187103 -1.709300
						CHANNELS 3 Xrotation Yrotation Zrotation
						JOINT LeftForeArm
						{
							OFFSET 22.049376 0.000000 0.000000
							CHANNELS 3 Xrotation Yrotation Zrotation
							JOINT LeftHand
							{
								OFFSET 23.009392 0.000000 0.000000
								CHANNELS 3 Xrotation Yrotation Zrotation
								JOINT LeftHandThumb1
								{
									OFFSET 3.507191 -2.063065 3.133727
									CHANNELS 3 Xrotation Yrotation Zrotation
									JOINT LeftHandThumb2
									{
										OFFSET 3.101337 -1.790558 1.790558
										CHANNELS 3 Xrotation Yrotation Zrotation
										JOINT LeftHandThumb3
										{
											OFFSET 3.058640 -1.765907 1.765906
											CHANNELS 3 Xrotation Yrotation Zrotation
											End Site
											{
												OFFSET -0.415260 3.926476 -0.049563
											}
										}
									}
								}
								JOINT LeftHandIndex1
								{
									OFFSET 11.334419 -0.901459 3.706815
									CHANNELS 3 Xrotation Yrotation Zrotation
									JOINT LeftHandIndex2
									{
										OFFSET 3.283112 0.000000 0.000000
										CHANNELS 3 Xrotation Yrotation Zrotation
										JOINT LeftHandIndex3
										{
											OFFSET 3.323853 0.000000 0.000000
											CHANNELS 3 Xrotation Yrotation Zrotation
											End Site
											{
												OFFSET -1.135597 3.097809 0.402452
											}
										}
									}
								}
								JOINT LeftHandMiddle1
								{
									OFFSET 11.335861 0.000000 0.000000
									CHANNELS 3 Xrotation Yrotation Zrotation
									JOINT LeftHandMiddle2
									{
										OFFSET 3.410492 0.000000 0.000000
										CHANNELS 3 Xrotation Yrotation Zrotation
										JOINT LeftHandMiddle3
										{
											OFFSET 3.312172 0.000000 0.000000
											CHANNELS 3 Xrotation Yrotation Zrotation
											End Site
											{
												OFFSET -1.150200 3.080154 0.400270
											}
										}
									}
								}
								JOINT LeftHandRing1
								{
									OFFSET 11.514786 -0.013176 -3.003090
									CHANNELS 3 Xrotation Yrotation Zrotation
									JOINT LeftHandRing2
									{
										OFFSET 3.053307 0.000000 0.000000
										CHANNELS 3 Xrotation Yrotation Zrotation
										JOINT LeftHandRing3
										{
											OFFSET 3.295807 0.000000 0.000000
											CHANNELS 3 Xrotation Yrotation Zrotation
											End Site
											{
												OFFSET -1.281006 3.013344 0.375733
											}
										}
									}
								}
								JOINT LeftHandPinky1
								{
									OFFSET 10.518692 -0.960396 -5.730441
									CHANNELS 3 Xrotation Yrotation Zrotation
									JOINT LeftHandPinky2
									{
										OFFSET 2.861649 0.000000 0.000000
										CHANNELS 3 Xrotation Yrotation Zrotation
										JOINT LeftHandPinky3
										{
											OFFSET 2.863380 0.000000 0.000000
											CHANNELS 3 Xrotation Yrotation Zrotation
											End Site
											{
												OFFSET -0.843597 2.711159 0.369971
											}
										}
									}
								}
							}
							JOINT LSleeve
							{
								OFFSET 6.676277 -0.344902 -1.011730
								CHANNELS 3 Xrotation Yrotation Zrotation
								End Site
								{
									OFFSET 0.000000 14.885353 0.000000
								}
							}
						}
					}
				}
				JOINT RightShoulder
				{
					OFFSET -6.197800 13.665199 -4.064700
					CHANNELS 3 Xrotation Yrotation Zrotation
					JOINT RightArm
					{
						OFFSET -7.778100 -0.187103 -1.709300
						CHANNELS 3 Xrotation Yrotation Zrotation
						JOINT RightForeArm
						{
							OFFSET -22.049376 0.000000 0.000000
							CHANNELS 3 Xrotation Yrotation Zrotation
							JOINT RightHand
							{
								OFFSET -23.009392 0.000000 0.000000
								CHANNELS 3 Xrotation Yrotation Zrotation
								JOINT RightHandThumb1
								{
									OFFSET -3.507191 -2.063065 3.133727
									CHANNELS 3 Xrotation Yrotation Zrotation
									JOINT RightHandThumb2
									{
										OFFSET -3.101337 -1.790558 1.790558
										CHANNELS 3 Xrotation Yrotation Zrotation
										JOINT RightHandThumb3
										{
											OFFSET -3.058640 -1.765907 1.765906
											CHANNELS 3 Xrotation Yrotation Zrotation
											End Site
											{
												OFFSET 0.415260 3.926476 -0.049563
											}
										}
									}
								}
								JOINT RightHandIndex1
								{
									OFFSET -11.334419 -0.901459 3.706815
									CHANNELS 3 Xrotation Yrotation Zrotation
									JOINT RightHandIndex2
									{
										OFFSET -3.283112 0.000000 0.000000
										CHANNELS 3 Xrotation Yrotation Zrotation
										JOINT RightHandIndex3
										{
											OFFSET -3.323853 0.000000 0.000000
											CHANNELS 3 Xrotation Yrotation Zrotation
											End Site
											{
												OFFSET 1.135597 3.097809 0.402452
											}
										}
									}
								}
								JOINT RightHandMiddle1
								{
									OFFSET -11.335861 0.000000 0.000000
									CHANNELS 3 Xrotation Yrotation Zrotation
									JOINT RightHandMiddle2
									{
										OFFSET -3.410492 0.000000 0.000000
										CHANNELS 3 Xrotation Yrotation Zrotation
										JOINT RightHandMiddle3
										{
											OFFSET -3.312172 0.000000 0.000000
											CHANNELS 3 Xrotation Yrotation Zrotation
											End Site
											{
												OFFSET 1.150200 3.080154 0.400270
											}
										}
									}
								}
								JOINT RightHandRing1
								{
									OFFSET -11.514786 -0.013176 -3.003090
									CHANNELS 3 Xrotation Yrotation Zrotation
									JOINT RightHandRing2
									{
										OFFSET -3.053307 0.000000 0.000000
										CHANNELS 3 Xrotation Yrotation Zrotation
										JOINT RightHandRing3
										{
											OFFSET -3.295807 0.000000 0.000000
											CHANNELS 3 Xrotation Yrotation Zrotation
											End Site
											{
												OFFSET 1.281006 3.013344 0.375733
											}
										}
									}
								}
								JOINT RightHandPinky1
								{
									OFFSET -10.518692 -0.960396 -5.730441
									CHANNELS 3 Xrotation Yrotation Zrotation
									JOINT RightHandPinky2
									{
										OFFSET -2.861649 0.000000 0.000000
										CHANNELS 3 Xrotation Yrotation Zrotation
										JOINT RightHandPinky3
										{
											OFFSET -2.863380 0.000000 0.000000
											CHANNELS 3 Xrotation Yrotation Zrotation
											End Site
											{
												OFFSET 0.843597 2.711159 0.369971
											}
										}
									}
								}
							}
							JOINT RSleeve
							{
								OFFSET -6.676277 -0.344902 -1.011730
								CHANNELS 3 Xrotation Yrotation Zrotation
								End Site
								{
									OFFSET 0.000000 14.885353 0.000000
								}
							}
						}
					}
				}
				JOINT Backpack
				{
					OFFSET 0.000000 -2.471497 36.677502
					CHANNELS 3 Xrotation Yrotation Zrotation
					End Site
					{
						OFFSET 0.000000 20.427315 0.000000
					}
				}
				JOINT Hood
				{
					OFFSET 0.000000 18.754097 -10.431000
					CHANNELS 3 Xrotation Yrotation Zrotation
					JOINT Hood1
					{
						OFFSET 0.000000 -5.011002 -7.685901
						CHANNELS 3 Xrotation Yrotation Zrotation
						End Site
						{
							OFFSET 0.000000 9.175140 0.000000
						}
					}
				}
				JOINT LHoodieString
				{
					OFFSET 5.250500 16.397697 3.089900
					CHANNELS 3 Xrotation Yrotation Zrotation
					JOINT LHoodieString1
					{
						OFFSET 0.257700 -6.364304 3.694600
						CHANNELS 3 Xrotation Yrotation Zrotation
						JOINT LHoodieString2
						{
							OFFSET 0.000000 -9.643799 2.679100
							CHANNELS 3 Xrotation Yrotation Zrotation
							End Site
							{
								OFFSET 0.000000 10.009018 0.000000
							}
						}
					}
				}
				JOINT RHoodieString
				{
					OFFSET -5.250500 16.397697 3.089900
					CHANNELS 3 Xrotation Yrotation Zrotation
					JOINT RHoodieString1
					{
						OFFSET -0.257700 -6.364304 3.694600
						CHANNELS 3 Xrotation Yrotation Zrotation
						JOINT RHoodieString2
						{
							OFFSET 0.000000 -9.643799 2.679100
							CHANNELS 3 Xrotation Yrotation Zrotation
							End Site
							{
								OFFSET 0.000000 10.009018 0.000000
							}
						}
					}
				}
			}
			JOINT LBackpack_Strap
			{
				OFFSET 15.223200 -7.719803 -6.610900
				CHANNELS 3 Xrotation Yrotation Zrotation
				End Site
				{
					OFFSET 0.000000 16.040596 0.000000
				}
			}
			JOINT RBackpack_Strap
			{
				OFFSET -15.223000 -7.719803 -6.610900
				CHANNELS 3 Xrotation Yrotation Zrotation
				End Site
				{
					OFFSET 0.000000 16.040596 0.000000
				}
			}
		}
	}
	JOINT BoyFacialAnim_Joint
	{
		OFFSET 1.000000 -82.208099 -1.550900
		CHANNELS 3 Xrotation Yrotation Zrotation
		End Site
		{
			OFFSET 0.000000 30.012791 0.000000
		}
	}
}
MOTION
Frames: 4
Frame Time: 0.016667
0.196614 101.327316 -1.134239 3.724210 -37.057526 3.428139 -0.000000 -0.000002 0.000000 -80.935727 -19.832735 30.200009 66.681566 1.433813 7.806171 12.024390 -1.326766 1.951971 -0.000000 0.000000 -0.000001 -0.000000 0.000000 -0.000001 -0.000000 0.000000 0.000001 -119.834795 -42.607243 -2.332327 124.169465 18.485589 -13.361627 15.951521 -0.344361 26.421313 -0.000000 -0.000001 -0.000005 -0.000000 -0.000001 -0.000005 -0.000000 0.000000 0.000000 31.624944 -4.980895 -10.253222 14.129382 0.964741 -3.082681 14.083560 0.916927 -3.297921 -8.677502 21.443466 -12.816583 -25.381084 13.620604 5.249198 0.000001 0.000001 -0.000000 0.000001 0.000001 -0.000000 0.000001 0.000001 -0.000000 11.474071 -16.374147 4.408435 -62.668796 -4.844728 -3.758201 45.767653 -24.019410 29.511127 -12.970322 31.805947 18.858159 40.109920 -15.297078 -0.360451 5.639849 28.097605 11.338692 0.000002 -0.000002 0.000002 6.882241 2.840081 -61.140418 8.247943 7.640005 -89.897959 0.000000 0.000001 -0.000002 -2.345509 4.688857 -62.655320 8.754131 9.897111 -87.051116 -0.000000 0.000001 -0.000001 -9.042521 10.045693 -60.766315 8.524078 9.508813 -66.893097 0.000000 0.000000 -0.000000 -17.946949 14.754974 -51.485799 8.868427 8.667062 -84.811962 -0.000006 -0.000001 -0.000002 -0.000000 -0.000000 -0.000000 18.189219 24.092150 -9.603803 -33.453126 6.374206 2.980966 -41.939233 39.311147 29.275895 -2.634150 7.017175 -19.613204 -1.525702 -5.490521 13.054253 1.517233 -22.702494 -8.022592 -0.000001 0.000000 -0.000003 1.275683 4.855667 -8.441558 0.521784 0.316514 6.397937 0.000000 0.000002 0.000002 0.863992 -5.171139 -11.645881 1.544691 -3.773589 21.274070 0.000000 0.000003 0.000002 1.777588 -11.827264 -9.453281 1.762676 -2.960307 20.651850 -0.000001 -0.000001 0.000000 2.612882 -21.378200 -4.080137 5.314408 -1.204971 -0.000010 0.000000 -0.000001 -0.000000 -0.000003 0.000000 -0.000002 0.000001 -0.000001 0.000002 0.000001 -0.000001 0.000002 0.000001 -0.000001 0.000002 0.000001 -0.000001 0.000002 0.000001 -0.000001 0.000001 0.000001 0.000000 0.000002 0.000001 -0.000001 0.000002 0.000001 -0.000001 0.000001 0.000001 0.000000 0.000002 0.000003 0.000000 -0.000001 0.000003 0.000000 -0.000001 -0.000000 -0.000002 0.000000 
0.201786 101.327148 -1.146836 3.749969 -37.160525 3.478349 0.000000 -0.000000 0.000000 -80.927073 -19.818067 30.218949 66.658015 1.376773 7.776194 12.051835 -1.206727 1.855998 0.000000 0.000000 -0.000001 0.000000 0.000000 -0.000001 -0.000002 0.000000 0.000001 -119.643959 -42.632531 -2.339983 124.060032 18.532021 -13.373696 15.813473 -0.364946 26.327685 -0.000000 -0.000000 -0.000003 -0.000000 -0.000000 -0.000003 -0.000001 0.000000 -0.000001 31.630739 -4.992797 -10.259259 14.124492 0.962687 -3.082691 14.081431 0.915137 -3.297779 -8.636877 21.467483 -12.828430 -25.291740 13.718662 5.212695 0.000002 0.000000 -0.000000 0.000002 0.000000 -0.000000 0.000002 0.000000 -0.000000 11.372203 -16.443320 3.967054 -62.208079 -4.571397 -3.790340 45.710447 -23.896262 29.381213 -13.152829 31.668346 18.894694 40.109917 -15.297078 -0.360447 5.639848 28.097609 11.338694 0.000000 -0.000001 -0.000001 6.882246 2.840082 -61.140411 8.247942 7.639999 -89.897959 -0.000006 -0.000002 -0.000004 -2.345507 4.688857 -62.655313 8.754130 9.897112 -87.051116 -0.000000 0.000000 0.000002 -9.042520 10.045687 -60.766315 8.524068 9.508810 -66.893090 -0.000001 0.000001 -0.000002 -17.946947 14.754976 -51.485795 8.868427 8.667057 -84.811962 0.000000 -0.000001 0.000001 -0.000000 -0.000001 -0.000001 18.029155 24.259182 -9.213510 -32.985531 6.584518 2.975913 -41.769803 39.073668 29.004699 -2.558817 7.327777 -19.065139 -1.525705 -5.490522 13.054246 1.517236 -22.702490 -8.022592 0.000000 -0.000000 -0.000005 1.264157 4.823527 -8.200510 0.528599 0.186450 7.355367 -0.000001 0.000002 0.000002 0.874199 -5.218027 -11.333218 1.587300 -3.878972 22.059947 0.000000 -0.000000 -0.000000 1.813583 -11.822569 -9.179901 1.792568 -3.024130 21.110291 0.000001 -0.000003 -0.000000 2.626258 -21.407370 -3.836552 5.351735 -1.276968 0.651229 0.000000 -0.000001 0.000000 -0.000001 -0.000004 -0.000005 -0.000000 0.000000 0.000001 -0.000000 0.000000 0.000001 -0.000000 0.000000 0.000001 -0.000000 0.000000 0.000001 -0.000000 0.000000 0.000001 -0.000001 0.000000 -0.000001 -0.000000 0.000000 0.000001 -0.000000 0.000000 0.000001 -0.000001 0.000000 -0.000001 0.000001 -0.000002 0.000001 0.000001 -0.000002 0.000001 0.000000 -0.000000 0.000000 
0.205157 101.328812 -1.161911 3.776856 -37.251066 3.530559 -0.000000 0.000002 -0.000000 -80.906801 -19.782726 30.228310 66.624370 1.351389 7.761579 11.991311 -1.120260 1.815115 -0.000001 0.000000 0.000002 -0.000001 0.000000 0.000002 -0.000000 -0.000001 0.000002 -119.427470 -42.656126 -2.343620 123.951896 18.603082 -13.386857 15.643896 -0.391061 26.223268 0.000000 -0.000000 -0.000004 0.000000 -0.000000 -0.000004 -0.000000 0.000000 -0.000003 31.623154 -5.004600 -10.262293 14.121958 0.959995 -3.082253 14.068812 0.912808 -3.297118 -8.610283 21.493202 -12.821325 -25.195729 13.750095 5.199516 -0.000000 -0.000001 -0.000000 -0.000000 -0.000001 -0.000000 -0.000000 -0.000001 -0.000000 11.267113 -16.494260 3.552173 -61.836387 -4.277159 -3.867888 45.655307 -23.778486 29.256661 -13.315566 31.475096 18.907552 40.109917 -15.297076 -0.360446 5.639846 28.097602 11.338690 -0.000001 0.000000 0.000000 6.882240 2.840077 -61.140411 8.247943 7.640002 -89.897959 -0.000003 0.000000 -0.000004 -2.345507 4.688857 -62.655313 8.754127 9.897114 -87.051116 0.000001 -0.000001 0.000003 -9.042514 10.045687 -60.766315 8.524075 9.508814 -66.893090 0.000001 0.000000 -0.000002 -17.946949 14.754969 -51.485795 8.868429 8.667063 -84.811955 -0.000000 -0.000002 -0.000001 -0.000001 0.000000 0.000001 17.871450 24.380046 -8.840637 -32.509668 6.730319 2.966674 -41.608095 38.845164 28.745701 -2.194464 7.735475 -18.572654 -1.525704 -5.490523 13.054253 1.517232 -22.702490 -8.022594 -0.000001 0.000001 0.000001 1.252743 4.791379 -7.959532 0.537554 0.056535 8.312888 -0.000001 -0.000004 0.000003 0.884680 -5.264784 -11.020559 1.631339 -3.983807 22.846018 0.000000 0.000003 0.000000 1.849512 -11.817699 -8.906585 1.822944 -3.087678 21.568778 -0.000001 0.000000 0.000001 2.639543 -21.436441 -3.593004 5.390302 -1.348501 1.586681 -0.000001 -0.000001 0.000002 0.000001 0.000000 -0.000001 -0.000000 0.000000 -0.000002 -0.000000 0.000000 -0.000002 -0.000000 0.000000 -0.000002 -0.000000 0.000000 -0.000002 -0.000000 0.000000 -0.000002 -0.000000 0.000001 -0.000002 -0.000000 0.000000 -0.000002 -0.000000 0.000000 -0.000002 -0.000000 0.000001 -0.000002 0.000001 0.000001 -0.000001 0.000001 0.000001 -0.000001 -0.000000 0.000002 -0.000000 
0.207390 101.329147 -1.174239 3.804767 -37.320123 3.580758 -0.000000 -0.000001 0.000000 -80.875751 -19.755248 30.242397 66.566511 1.339170 7.755633 11.984939 -1.075379 1.737751 -0.000000 0.000000 0.000002 -0.000000 0.000000 0.000002 0.000000 0.000000 0.000001 -119.203958 -42.665166 -2.339353 123.834540 18.642344 -13.399381 15.484008 -0.417953 26.170925 -0.000000 0.000000 0.000001 -0.000000 0.000000 0.000001 0.000001 0.000000 -0.000002 31.610057 -5.014304 -10.262718 14.106486 0.954762 -3.080998 14.049159 0.908815 -3.295747 -8.563379 21.515700 -12.819801 -25.070503 13.794746 5.150471 -0.000000 0.000000 0.000000 -0.000000 0.000000 0.000000 -0.000000 0.000000 0.000000 11.178840 -16.526056 3.162651 -61.569429 -3.861276 -3.799281 45.619718 -23.701721 29.176943 -13.445429 31.206369 18.883639 40.109914 -15.297079 -0.360450 5.639849 28.097609 11.338694 0.000000 0.000000 0.000002 6.882237 2.840081 -61.140418 8.247946 7.640001 -89.897959 -0.000001 0.000003 -0.000005 -2.345508 4.688858 -62.655313 8.754132 9.897106 -87.051116 -0.000003 0.000002 -0.000003 -9.042515 10.045695 -60.766322 8.524069 9.508810 -66.893090 0.000001 0.000000 -0.000002 -17.946945 14.754973 -51.485802 8.868434 8.667058 -84.811955 0.000003 -0.000000 -0.000002 -0.000003 0.000000 -0.000002 17.715212 24.468466 -8.495867 -32.128865 6.751247 2.910647 -41.451421 38.621380 28.494033 -1.622675 7.766576 -18.155244 -1.525702 -5.490521 13.054255 1.517233 -22.702490 -8.022583 0.000001 -0.000000 0.000000 1.241614 4.759400 -7.720696 0.548544 -0.072035 9.261820 -0.000001 -0.000001 0.000003 0.895318 -5.311143 -10.710619 1.676470 -4.087043 23.625244 -0.000000 0.000000 0.000002 1.885113 -11.812664 -8.635657 1.853574 -3.150471 22.023204 -0.000002 -0.000002 0.000002 2.652774 -21.465174 -3.351509 5.429578 -1.418823 2.513882 -0.000000 -0.000003 -0.000002 0.000001 -0.000004 0.000001 -0.000002 0.000001 -0.000002 -0.000002 0.000001 -0.000002 -0.000002 0.000001 -0.000002 -0.000002 0.000001 -0.000002 -0.000002 0.000001 -0.000000 -0.000003 -0.000001 -0.000000 -0.000002 0.000001 -0.000002 -0.000002 0.000001 -0.000000 -0.000003 -0.000001 -0.000000 -0.000002 0.000002 -0.000001 -0.000002 0.000002 -0.000001 -0.000000 -0.000001 0.000000 
